<?xml version="1.0" encoding="utf-8"?>
<svg version="1.1" xmlns:xlink="http://www.w3.org/1999/xlink" width="94px" height="107px" xmlns="http://www.w3.org/2000/svg">
  <g transform="matrix(1 0 0 1 -531 -129 )">
    <path d="M 5.71444506413832 100.495259341885  C 6.37850901654583 101.251161926009  6.71054099274958 102.146309722997  6.71054099274958 103.18070273285  C 6.71054099274958 104.215095742703  6.37850901654583 105.110243539691  5.71444506413832 105.866146123815  C 5.05038111173081 106.622048707938  4.26398958914296 107  3.35527049637479 107  C 2.44655140360662 107  1.66015988101878 106.622048707938  0.996095928611266 105.866146123815  C 0.332031976203755 105.110243539691  0 104.215095742703  0 103.18070273285  C 0 102.146309722997  0.332031976203755 101.251161926009  0.996095928611266 100.495259341885  C 1.66015988101878 99.7393567577617  2.44655140360662 99.3614054656999  3.35527049637479 99.3614054656999  C 4.26398958914296 99.3614054656999  5.05038111173081 99.7393567577617  5.71444506413832 100.495259341885  Z M 15.7802565532627 89.037367540435  C 16.4443205056702 89.7932701245585  16.776352481874 90.6884179215468  16.776352481874 91.7228109313999  C 16.776352481874 92.757203941253  16.4443205056702 93.6523517382413  15.7802565532627 94.4082543223648  C 15.1161926008552 95.1641569064882  14.3298010782673 95.5421081985499  13.4210819854992 95.5421081985499  C 12.512362892731 95.5421081985499  11.7259713701431 95.1641569064882  11.0619074177356 94.4082543223648  C 10.3978434653281 93.6523517382413  10.0658114891244 92.757203941253  10.0658114891244 91.7228109313999  C 10.0658114891244 90.6884179215468  10.3978434653281 89.7932701245585  11.0619074177356 89.037367540435  C 11.7259713701431 88.2814649563116  12.512362892731 87.9035136642499  13.4210819854992 87.9035136642499  C 14.3298010782673 87.9035136642499  15.1161926008552 88.2814649563116  15.7802565532627 89.037367540435  Z M 14.4171779141104 75.3117679866146  L 19.1355270496375 69.9408812046849  L 32.5566090351366 85.218070273285  L 27.8382598996096 90.5889570552147  L 14.4171779141104 75.3117679866146  Z M 35.9118795315114 66.1215839375349  C 36.5759434839189 66.8774865216583  36.9079754601227 67.7726343186466  36.9079754601227 68.8070273284997  C 36.9079754601227 69.8414203383528  36.5759434839189 70.7365681353411  35.9118795315114 71.4924707194646  C 35.2478155791039 72.248373303588  34.4614240565161 72.6263245956498  33.5527049637479 72.6263245956498  C 32.6439858709797 72.6263245956498  31.8575943483919 72.248373303588  31.1935303959844 71.4924707194646  C 30.5294664435769 70.7365681353411  30.1974344673731 69.8414203383528  30.1974344673731 68.8070273284997  C 30.1974344673731 67.7726343186466  30.5294664435769 66.8774865216583  31.1935303959844 66.1215839375349  C 31.8575943483919 65.3656813534114  32.6439858709797 64.9877300613497  33.5527049637479 64.9877300613497  C 34.4614240565161 64.9877300613497  35.2478155791039 65.3656813534114  35.9118795315114 66.1215839375349  Z M 71.5878416062465 36.3728388176241  C 73.1781000185908 40.6098717233687  73.973229224763 45.0557724484105  73.973229224763 49.7105409927496  C 73.973229224763 52.0578174381855  73.7722625023239 54.2161182375906  73.3703290574456 56.1854433909649  C 72.9683956125674 58.1547685443391  72.3130693437442 60.0146867447481  71.404350250976 61.7651979921919  C 70.4956311582079 63.5157092396356  69.7267150027886 64.8584309351181  69.0976017847184 65.7933630786391  C 68.4684885666481 66.7282952221602  67.5422941067113 68.0113403978435  66.319018404908 69.6424986056888  C 65.2355456404536 71.0349507343372  64.4404164342815 72.1091280907232  63.9336307863915 72.8650306748466  C 63.4268451385016 73.6209332589701  62.8414203383529 74.6155419222904  62.1773563859453 75.8488566648076  C 61.5132924335378 77.0821714073248  61.0501952035694 78.3552704963748  60.7880646960402 79.6681539319576  C 60.5259341885109 80.9810373675404  60.3948689347462 82.4530581892545  60.3948689347462 84.0842163970998  C 60.3948689347462 90.4099274958171  58.4288901282766 95.8106525376464  54.4969325153374 100.286391522588  C 50.5649749023982 104.762130507529  45.8204127161182 107  40.2632459564975 107  C 39.3545268637293 107  38.5681353411415 106.622048707938  37.904071388734 105.866146123815  C 37.2400074363265 105.110243539691  36.9079754601227 104.215095742703  36.9079754601227 103.18070273285  C 36.9079754601227 102.146309722997  37.2400074363265 101.251161926009  37.904071388734 100.495259341885  C 38.5681353411415 99.7393567577617  39.3545268637293 99.3614054656999  40.2632459564975 99.3614054656999  C 43.9680237962447 99.3614054656999  47.1310652537646 97.8694924707195  49.7523703290574 94.8856664807585  C 52.3736754043503 91.9018404907976  53.6843279419967 88.301357129578  53.6843279419967 84.0842163970998  C 53.6843279419967 81.8165086447295  53.8852946644358 79.7178843651236  54.287228109314 77.7883435582822  C 54.6891615541922 75.8588027514408  55.3357501394311 74.0486149841978  56.2269938650307 72.3577802565533  C 57.1182375906302 70.6669455289087  57.8784160624651 69.3441160066927  58.5075292805354 68.3892916899052  C 59.1366424986057 67.4344673731177  60.0453615913739 66.1812604573341  61.2336865588399 64.6296709425544  C 62.6317159323294 62.799591002045  63.6715002788622 61.3673545268637  64.3530395984384 60.3329615170106  C 65.0345789180145 59.2985685071575  65.6899051868377 57.8166015988102  66.319018404908 55.8870607919688  C 66.9481316229783 53.9575199851274  67.2626882320134 51.8986800520543  67.2626882320134 49.7105409927496  C 67.2626882320134 42.3504368841792  64.96467744934 36.0545640453616  60.3686558839933 30.8229224762967  C 55.7726343186466 25.5912809072318  50.2416806097788 22.9754601226994  43.7757947573898 22.9754601226994  C 37.3099089050009 22.9754601226994  31.7789551961331 25.5912809072318  27.1829336307864 30.8229224762967  C 22.5869120654397 36.0545640453616  20.2889012827663 42.3504368841792  20.2889012827663 49.7105409927496  C 20.2889012827663 50.7449340026027  19.9568693065626 51.640081799591  19.2928053541551 52.3959843837144  C 18.6287414017475 53.1518869678379  17.8423498791597 53.5298382598996  16.9336307863915 53.5298382598996  C 16.0249116936234 53.5298382598996  15.2385201710355 53.1518869678379  14.574456218628 52.3959843837144  C 13.9103922662205 51.640081799591  13.5783602900167 50.7449340026027  13.5783602900167 49.7105409927496  C 13.5783602900167 45.0557724484105  14.3734894961889 40.6098717233687  15.9637479085332 36.3728388176241  C 17.5540063208775 32.1358059118795  19.7034764826176 28.4756460308607  22.4121583937535 25.3923591745678  C 25.1208403048894 22.3090723182748  28.3363078639152 19.8623350065068  32.058561070831 18.0521472392638  C 35.7808142777468 16.2419594720208  39.6865588399331 15.3368655883993  43.7757947573898 15.3368655883993  C 47.8650306748466 15.3368655883993  51.7707752370329 16.2419594720208  55.4930284439487 18.0521472392638  C 59.2152816508645 19.8623350065068  62.4307492098903 22.3090723182748  65.1394311210262 25.3923591745678  C 67.8481130321621 28.4756460308607  69.9975831939022 32.1358059118795  71.5878416062465 36.3728388176241  Z M 45.9776910206358 54.6636921360848  C 46.6417549730433 55.4195947202082  46.9737869492471 56.3147425171965  46.9737869492471 57.3491355270496  C 46.9737869492471 58.3835285369028  46.6417549730433 59.278676333891  45.9776910206358 60.0345789180145  C 45.3136270682283 60.7904815021379  44.5272355456405 61.1684327941997  43.6185164528723 61.1684327941997  C 42.7097973601041 61.1684327941997  41.9234058375163 60.7904815021379  41.2593418851088 60.0345789180145  C 40.5952779327012 59.278676333891  40.2632459564975 58.3835285369028  40.2632459564975 57.3491355270496  C 40.2632459564975 56.3147425171965  40.5952779327012 55.4195947202082  41.2593418851088 54.6636921360848  C 41.9234058375163 53.9077895519613  42.7097973601041 53.5298382598996  43.6185164528723 53.5298382598996  C 44.5272355456405 53.5298382598996  45.3136270682283 53.9077895519613  45.9776910206358 54.6636921360848  Z M 56.6726157278304 34.851087562744  C 60.2725413645659 38.9488752556237  62.0725041829336 43.9020263989589  62.0725041829336 49.7105409927496  C 62.0725041829336 50.7449340026027  61.7404722067299 51.640081799591  61.0764082543224 52.3959843837144  C 60.4123443019149 53.1518869678379  59.625952779327 53.5298382598996  58.7172336865588 53.5298382598996  C 57.8085145937907 53.5298382598996  57.0221230712028 53.1518869678379  56.3580591187953 52.3959843837144  C 55.6939951663878 51.640081799591  55.3619631901841 50.7449340026027  55.3619631901841 49.7105409927496  C 55.3619631901841 46.010596765198  54.2173266406395 42.8576873024726  51.9280535415505 40.2518126045733  C 49.6387804424614 37.6459379066741  46.8689347462354 36.3430005577245  43.6185164528723 36.3430005577245  C 40.4030488938464 36.3430005577245  37.6419408812047 37.6459379066741  35.335192414947 40.2518126045733  C 33.0284439486894 42.8576873024726  31.8750697155605 46.010596765198  31.8750697155605 49.7105409927496  C 31.8750697155605 50.7449340026027  31.5430377393568 51.640081799591  30.8789737869492 52.3959843837144  C 30.2149098345417 53.1518869678379  29.4285183119539 53.5298382598996  28.5197992191857 53.5298382598996  C 27.6110801264176 53.5298382598996  26.8246886038297 53.1518869678379  26.1606246514222 52.3959843837144  C 25.4965606990147 51.640081799591  25.1645287228109 50.7449340026027  25.1645287228109 49.7105409927496  C 25.1645287228109 43.9020263989589  26.9644915411787 38.9488752556237  30.5644171779141 34.851087562744  C 34.1643428146496 30.7532998698643  38.5157092396356 28.7044060234244  43.6185164528723 28.7044060234244  C 48.7213236661089 28.7044060234244  53.072690091095 30.7532998698643  56.6726157278304 34.851087562744  Z M 68.7830451756832 11.5175683212493  C 75.1790295593977 16.9680237962447  79.8274772262502 23.9501766127533  82.7283881762409 32.4640267707752  C 83.0778955196133 33.4586354340955  83.0604201524447 34.4333519241495  82.6759620747351 35.388176240937  C 82.2915039970255 36.3430005577245  81.6623907789552 37.0193344487823  80.7886224205243 37.4171779141104  C 80.4740658114891 37.5763153002417  80.0721323666109 37.6558839933073  79.5828220858896 37.6558839933073  C 78.9187581334821 37.6558839933073  78.2983825989961 37.4370700873768  77.7216954824317 36.9994422755159  C 77.1450083658673 36.5618144636549  76.7343372374047 35.9650492656628  76.4896820970441 35.2091466815393  C 74.1130321621119 28.1275329986986  70.1985499163413 22.2593418851088  64.7462353597323 17.6045733407697  C 64.0122699386503 16.9680237962447  63.5753857594348 16.1325525190556  63.4355828220859 15.0981595092024  C 63.2957798847369 14.0637664993493  63.5054842907604 13.1288343558282  64.0646960401562 12.2933630786392  C 64.6588585238892 11.4578918014501  65.4102993121398 10.9605874697899  66.319018404908 10.8014500836587  C 67.2277374976762 10.6423126975274  68.0490797546012 10.8810187767243  68.7830451756832 11.5175683212493  Z M 75.8605688789738 0.835471277189064  C 84.0739914482246 7.79773192043129  90.0330916527236 16.7293177170478  93.7378694924707 27.6302286670385  C 94.0524261015059 28.6248373303588  94.0262130507529 29.5995538204127  93.6592303402119 30.5543781372002  C 93.292247629671 31.5092024539877  92.671872095185 32.1855363450455  91.798103736754 32.5833798103737  C 91.4136456590444 32.7425171965049  91.0117122141662 32.8220858895706  90.5923034021194 32.8220858895706  C 89.0544710912809 32.8220858895706  88.0059490611638 32.0065067856479  87.446737311768 30.3753485778026  C 84.2312697527422 20.9066741029931  79.0410857036624 13.0890500092954  71.8761851645287 6.92247629670942  C 71.1072690091095 6.28592675218441  70.6616471463097 5.45045547499535  70.5393195761294 4.41606246514222  C 70.4169920059491 3.38166945528908  70.6354340955568 2.44673731176798  71.1946458449526 1.61126603457892  C 71.7538575943484 0.736010410857036  72.4878230154304 0.228759992563664  73.3965421081986 0.0895147796988283  C 74.3052612009667 -0.0497304331660315  75.1266034578918 0.198921732664043  75.8605688789738 0.835471277189064  Z " fill-rule="nonzero" fill="#000000" stroke="none" transform="matrix(1 0 0 1 531 129 )" />
  </g>
</svg>