<?xml version="1.0" encoding="utf-8"?>
<svg version="1.1" xmlns:xlink="http://www.w3.org/1999/xlink" width="28px" height="33px" xmlns="http://www.w3.org/2000/svg">
  <g transform="matrix(1 0 0 1 -953 -373 )">
    <path d="M 1.70217512548801 30.9938650306748  C 1.89998140918386 31.2269938650307  1.99888455103179 31.5030674846626  1.99888455103179 31.8220858895706  C 1.99888455103179 32.1411042944785  1.89998140918386 32.4171779141104  1.70217512548801 32.6503067484663  C 1.50436884179215 32.8834355828221  1.27012455846812 33  0.999442275515895 33  C 0.728759992563674 33  0.494515709239636 32.8834355828221  0.296709425543781 32.6503067484663  C 0.0989031418479271 32.4171779141104  0 32.1411042944785  0 31.8220858895706  C 0 31.5030674846626  0.0989031418479271 31.2269938650307  0.296709425543781 30.9938650306748  C 0.494515709239636 30.760736196319  0.728759992563674 30.6441717791411  0.999442275515895 30.6441717791411  C 1.27012455846812 30.6441717791411  1.50436884179215 30.760736196319  1.70217512548801 30.9938650306748  Z M 4.70050195203569 27.4601226993865  C 4.89830823573155 27.6932515337423  4.99721137757948 27.9693251533742  4.99721137757948 28.2883435582822  C 4.99721137757948 28.6073619631902  4.89830823573155 28.8834355828221  4.70050195203569 29.1165644171779  C 4.50269566833984 29.3496932515337  4.2684513850158 29.4662576687117  3.99776910206358 29.4662576687117  C 3.72708681911136 29.4662576687117  3.49284253578732 29.3496932515337  3.29503625209147 29.1165644171779  C 3.09722996839561 28.8834355828221  2.99832682654769 28.6073619631902  2.99832682654769 28.2883435582822  C 2.99832682654769 27.9693251533742  3.09722996839561 27.6932515337423  3.29503625209147 27.4601226993865  C 3.49284253578732 27.2269938650307  3.72708681911136 27.1104294478528  3.99776910206358 27.1104294478528  C 4.2684513850158 27.1104294478528  4.50269566833984 27.2269938650307  4.70050195203569 27.4601226993865  Z M 4.29447852760736 23.2269938650307  L 5.69994422755159 21.5705521472393  L 9.69771332961517 26.2822085889571  L 8.29224762967094 27.9386503067485  L 4.29447852760736 23.2269938650307  Z M 10.6971556051311 20.3926380368098  C 10.8949618888269 20.6257668711656  10.9938650306748 20.9018404907975  10.9938650306748 21.2208588957055  C 10.9938650306748 21.5398773006135  10.8949618888269 21.8159509202454  10.6971556051311 22.0490797546012  C 10.4993493214352 22.2822085889571  10.2651050381112 22.398773006135  9.99442275515895 22.398773006135  C 9.72374047220673 22.398773006135  9.48949618888269 22.2822085889571  9.29168990518684 22.0490797546012  C 9.09388362149098 21.8159509202454  8.99498047964306 21.5398773006135  8.99498047964306 21.2208588957055  C 8.99498047964306 20.9018404907975  9.09388362149098 20.6257668711656  9.29168990518684 20.3926380368098  C 9.48949618888269 20.159509202454  9.72374047220673 20.0429447852761  9.99442275515895 20.0429447852761  C 10.2651050381112 20.0429447852761  10.4993493214352 20.159509202454  10.6971556051311 20.3926380368098  Z M 21.3240379252649 11.2177914110429  C 21.7977319204313 12.5245398773006  22.0345789180145 13.8957055214724  22.0345789180145 15.3312883435583  C 22.0345789180145 16.0552147239264  21.9747164900539 16.7208588957055  21.8549916341327 17.3282208588957  C 21.7352667782116 17.9355828220859  21.5400632087749 18.5092024539877  21.2693809258226 19.0490797546012  C 20.9986986428704 19.5889570552147  20.7696597880647 20.0030674846626  20.5822643614055 20.2914110429448  C 20.3948689347462 20.579754601227  20.1189812232757 20.9754601226994  19.7546012269939 21.478527607362  C 19.4318646588585 21.9079754601227  19.1950176612753 22.239263803681  19.0440602342443 22.4723926380368  C 18.8931028072132 22.7055214723926  18.7187209518498 23.0122699386503  18.5209146681539 23.3926380368098  C 18.3231083844581 23.7730061349693  18.1851645287228 24.1656441717791  18.1070831009481 24.5705521472393  C 18.0290016731735 24.9754601226994  17.9899609592861 25.4294478527607  17.9899609592861 25.9325153374233  C 17.9899609592861 27.8834355828221  17.404350250976 29.5490797546012  16.2331288343558 30.9294478527607  C 15.0619074177356 32.3098159509202  13.6486335750139 33  11.9933073061907 33  C 11.7226250232385 33  11.4883807399145 32.8834355828221  11.2905744562186 32.6503067484663  C 11.0927681725228 32.4171779141104  10.9938650306748 32.1411042944785  10.9938650306748 31.8220858895706  C 10.9938650306748 31.5030674846626  11.0927681725228 31.2269938650307  11.2905744562186 30.9938650306748  C 11.4883807399145 30.760736196319  11.7226250232385 30.6441717791411  11.9933073061907 30.6441717791411  C 13.0968581520729 30.6441717791411  14.0390407138873 30.1840490797546  14.8198549916341 29.2638036809816  C 15.6006692693809 28.3435582822086  15.9910764082543 27.2331288343558  15.9910764082543 25.9325153374233  C 15.9910764082543 25.2331288343558  16.0509388362149 24.5858895705521  16.1706636921361 23.9907975460123  C 16.2903885480573 23.3957055214724  16.4829894032348 22.8374233128834  16.7484662576687 22.3159509202454  C 17.0139431121026 21.7944785276074  17.2403792526492 21.3865030674847  17.4277746793084 21.0920245398773  C 17.6151701059677 20.7975460122699  17.8858523889199 20.4110429447853  18.2398215281651 19.9325153374233  C 18.65625580963 19.3680981595092  18.9659788064696 18.9263803680982  19.1689905186838 18.6073619631902  C 19.3720022308979 18.2883435582822  19.5672058003346 17.8312883435583  19.7546012269939 17.2361963190184  C 19.9419966536531 16.6411042944785  20.0356943669827 16.0061349693252  20.0356943669827 15.3312883435583  C 20.0356943669827 13.0613496932515  19.3511805168247 11.1196319018405  17.9821528165086 9.50613496932515  C 16.6131251161926 7.89263803680982  14.9656069901469 7.08588957055215  13.0395984383714 7.08588957055215  C 11.113589886596 7.08588957055215  9.46607176055029 7.89263803680982  8.09704406023424 9.50613496932515  C 6.7280163599182 11.1196319018405  6.04350250976018 13.0613496932515  6.04350250976018 15.3312883435583  C 6.04350250976018 15.6503067484663  5.94459936791225 15.9263803680982  5.7467930842164 16.159509202454  C 5.54898680052054 16.3926380368098  5.31474251719651 16.5092024539877  5.04406023424428 16.5092024539877  C 4.77337795129206 16.5092024539877  4.53913366796802 16.3926380368098  4.34132738427217 16.159509202454  C 4.14352110057632 15.9263803680982  4.04461795872839 15.6503067484663  4.04461795872839 15.3312883435583  C 4.04461795872839 13.8957055214724  4.28146495631158 12.5245398773006  4.75515895147797 11.2177914110429  C 5.22885294664436 9.91104294478528  5.86912065439673 8.78220858895705  6.67596207473508 7.83128834355828  C 7.48280349507343 6.88036809815951  8.44060234244283 6.12576687116564  9.54935861684328 5.56748466257669  C 10.6581148912437 5.00920245398773  11.8215281650864 4.73006134969325  13.0395984383714 4.73006134969325  C 14.2576687116564 4.73006134969325  15.4210819854992 5.00920245398773  16.5298382598996 5.56748466257669  C 17.6385945343001 6.12576687116564  18.5963933816695 6.88036809815951  19.4032348020078 7.83128834355828  C 20.2100762223462 8.78220858895705  20.8503439300985 9.91104294478528  21.3240379252649 11.2177914110429  Z M 13.6954824316788 16.8588957055215  C 13.8932887153746 17.0920245398773  13.9921918572225 17.3680981595092  13.9921918572225 17.6871165644172  C 13.9921918572225 18.0061349693251  13.8932887153746 18.2822085889571  13.6954824316788 18.5153374233129  C 13.4976761479829 18.7484662576687  13.2634318646589 18.8650306748466  12.9927495817066 18.8650306748466  C 12.7220672987544 18.8650306748466  12.4878230154304 18.7484662576687  12.2900167317345 18.5153374233129  C 12.0922104480387 18.2822085889571  11.9933073061907 18.0061349693251  11.9933073061907 17.6871165644172  C 11.9933073061907 17.3680981595092  12.0922104480387 17.0920245398773  12.2900167317345 16.8588957055215  C 12.4878230154304 16.6257668711656  12.7220672987544 16.5092024539877  12.9927495817066 16.5092024539877  C 13.2634318646589 16.5092024539877  13.4976761479829 16.6257668711656  13.6954824316788 16.8588957055215  Z M 16.8812046848857 10.7484662576687  C 17.9535229596579 12.0122699386503  18.4896820970441 13.5398773006135  18.4896820970441 15.3312883435583  C 18.4896820970441 15.6503067484663  18.3907789551961 15.9263803680982  18.1929726715003 16.159509202454  C 17.9951663878044 16.3926380368098  17.7609221044804 16.5092024539877  17.4902398215282 16.5092024539877  C 17.2195575385759 16.5092024539877  16.9853132552519 16.3926380368098  16.7875069715561 16.159509202454  C 16.5897006878602 15.9263803680982  16.4907975460123 15.6503067484663  16.4907975460123 15.3312883435583  C 16.4907975460123 14.1901840490798  16.1498419780628 13.2177914110429  15.467930842164 12.4141104294479  C 14.7860197062651 11.6104294478528  13.9609592861127 11.2085889570552  12.9927495817066 11.2085889570552  C 12.0349507343372 11.2085889570552  11.2124930284439 11.6104294478528  10.5253764640268 12.4141104294479  C 9.83825989960959 13.2177914110429  9.494701617401 14.1901840490798  9.494701617401 15.3312883435583  C 9.494701617401 15.6503067484663  9.39579847555308 15.9263803680982  9.19799219185722 16.159509202454  C 9.00018590816137 16.3926380368098  8.76594162483733 16.5092024539877  8.49525934188511 16.5092024539877  C 8.22457705893289 16.5092024539877  7.99033277560885 16.3926380368098  7.792526491913 16.159509202454  C 7.59472020821714 15.9263803680982  7.49581706636921 15.6503067484663  7.49581706636921 15.3312883435583  C 7.49581706636921 13.5398773006135  8.03197620375535 12.0122699386503  9.10429447852761 10.7484662576687  C 10.1766127532999 9.48466257668711  11.4727644543595 8.85276073619632  12.9927495817066 8.85276073619632  C 14.5127347090537 8.85276073619632  15.8088864101134 9.48466257668711  16.8812046848857 10.7484662576687  Z M 20.4885666480758 3.5521472392638  C 22.393753485778 5.23312883435583  23.778397471649 7.38650306748466  24.6424986056888 10.0122699386503  C 24.746607176055 10.319018404908  24.7414017475367 10.6196319018405  24.6268823201339 10.9141104294479  C 24.512362892731 11.2085889570552  24.3249674660718 11.4171779141104  24.0646960401562 11.5398773006135  C 23.9709983268266 11.5889570552147  23.8512734709054 11.6134969325153  23.7055214723926 11.6134969325153  C 23.5077151886968 11.6134969325153  23.3229224762967 11.5460122699386  23.1511433351924 11.4110429447853  C 22.9793641940881 11.2760736196319  22.8570366239078 11.0920245398773  22.7841606246514 10.8588957055215  C 22.076222346161 8.67484662576687  20.9102063580591 6.86503067484663  19.2861126603458 5.42944785276074  C 19.0674846625767 5.23312883435583  18.9373489496189 4.97546012269938  18.8957055214724 4.65644171779141  C 18.8540620933259 4.33742331288343  18.9165272355456 4.04907975460123  19.0831009481316 3.79141104294479  C 19.2600855177542 3.53374233128835  19.4839189440416 3.38036809815951  19.7546012269939 3.33128834355828  C 20.0252835099461 3.28220858895705  20.2699386503067 3.3558282208589  20.4885666480758 3.5521472392638  Z M 22.5967651979922 0.25766871165644  C 25.0433166015988 2.40490797546012  26.8183677263432 5.15950920245399  27.9219185722253 8.52147239263804  C 28.0156162855549 8.8282208588957  28.0078081427775 9.12883435582822  27.8984941438929 9.42331288343558  C 27.7891801450084 9.71779141104294  27.6043874326083 9.92638036809816  27.3441160066927 10.0490797546012  C 27.2295965792898 10.0981595092024  27.1098717233687 10.1226993865031  26.9849414389292 10.1226993865031  C 26.5268637293177 10.1226993865031  26.214538018219 9.87116564417178  26.047964305633 9.3680981595092  C 25.0901654582636 6.44785276073619  23.544153188325 4.03680981595092  21.4099274958171 2.13496932515337  C 21.1808886410113 1.93865030674846  21.0481502137944 1.68098159509202  21.0117122141662 1.36196319018405  C 20.975274214538 1.04294478527607  21.0403420710169 0.754601226993864  21.2069157836029 0.496932515337424  C 21.3734894961889 0.226993865030675  21.592117493958 0.070552147239261  21.8627997769102 0.02760736196319  C 22.1334820598624 -0.0153374233128882  22.3781372002231 0.0613496932515273  22.5967651979922 0.25766871165644  Z " fill-rule="nonzero" fill="#000000" stroke="none" transform="matrix(1 0 0 1 953 373 )" />
  </g>
</svg>