<?xml version="1.0" encoding="utf-8"?>
<svg version="1.1" xmlns:xlink="http://www.w3.org/1999/xlink" width="22px" height="32px" xmlns="http://www.w3.org/2000/svg">
  <g transform="matrix(1 0 0 1 -896 -437 )">
    <path d="M 20.4285714285714 2.66319895968791  L 20.4285714285714 10.6527958387516  C 20.8623511904762 10.6527958387516  21.2327008928571 10.9128738621586  21.5396205357143 11.4330299089727  C 21.8465401785714 11.9531859557867  22 12.5808409189424  22 13.3159947984395  C 22 14.0511486779367  21.8465401785714 14.6788036410923  21.5396205357143 15.1989596879064  C 21.2327008928571 15.7191157347204  20.8623511904762 15.9791937581274  20.4285714285714 15.9791937581274  L 20.4285714285714 23.9687906371912  C 20.4285714285714 24.6900736887733  20.2730654761905 25.3142609449501  19.9620535714286 25.8413524057217  C 19.6510416666667 26.3684438664933  19.2827380952381 26.6319895968791  18.8571428571429 26.6319895968791  C 15.4441964285714 21.8188123103598  12.1212797619048 19.1833550065019  8.88839285714286 18.7256176853056  C 8.41369047619048 18.9891634156914  8.04129464285714 19.4469007368877  7.77120535714286 20.0988296488947  C 7.50111607142857 20.7507585609016  7.37425595238095 21.4477676636324  7.390625 22.1898569570871  C 7.40699404761905 22.9319462505418  7.57068452380952 23.5734720416125  7.88169642857143 24.1144343302991  C 7.71800595238095 24.5721716514954  7.62388392857143 25.026441265713  7.59933035714286 25.4772431729519  C 7.57477678571429 25.9280450801907  7.59933035714286 26.3302990897269  7.67299107142857 26.6840052015605  C 7.74665178571429 27.037711313394  7.88374255952381 27.4191590810577  8.08426339285714 27.8283485045514  C 8.28478422619048 28.2375379280451  8.48121279761905 28.5843086259211  8.67354910714286 28.8686605981795  C 8.86588541666667 29.1530125704378  9.11755952380952 29.5032509752926  9.42857142857143 29.9193758127438  C 9.19122023809524 30.7238838318162  8.73493303571428 31.2995231902904  8.05970982142857 31.6462938881665  C 7.38448660714286 31.9930645860425  6.69494047619048 32.072821846554  5.99107142857143 31.8855656697009  C 5.28720238095238 31.6983094928479  4.74702380952381 31.3133940182055  4.37053571428571 30.7308192457737  C 4.31324404761905 30.4117902037278  4.19252232142857 29.8049414824447  4.00837053571429 28.9102730819246  C 3.82421875 28.0156046814044  3.69326636904762 27.3602080624187  3.61551339285714 26.9440832249675  C 3.53776041666667 26.5279583875163  3.44363839285714 25.9107065452969  3.33314732142857 25.0923276983095  C 3.22265625 24.2739488513221  3.16127232142857 23.5734720416125  3.14899553571429 22.9908972691808  C 3.13671875 22.408322496749  3.15104166666667 21.7251842219332  3.19196428571429 20.9414824447334  C 3.23288690476191 20.1577806675336  3.32291666666667 19.3914174252276  3.46205357142857 18.6423927178153  L 1.96428571428571 18.6423927178153  C 1.42410714285714 18.6423927178153  0.961681547619048 18.3164282618119  0.577008928571429 17.6644993498049  C 0.19233630952381 17.012570437798  0 16.2288686605982  0 15.3133940182055  L 0 11.3185955786736  C 0 10.4031209362809  0.19233630952381 9.61941915908105  0.577008928571429 8.96749024707412  C 0.961681547619048 8.31556133506718  1.42410714285714 7.98959687906372  1.96428571428571 7.98959687906372  L 7.85714285714286 7.98959687906372  C 11.4174107142857 7.98959687906372  15.0840773809524 5.32639791937581  18.8571428571429 0  C 19.2827380952381 0  19.6510416666667 0.263545730385779  19.9620535714286 0.790637191157348  C 20.2730654761905 1.31772865192891  20.4285714285714 1.94191590810576  20.4285714285714 2.66319895968791  Z M 9.42857142857143 16.1248374512354  C 12.5141369047619 16.7074122236671  15.656994047619 19.0723883831816  18.8571428571429 23.2197659297789  L 18.8571428571429 3.37061118335501  C 15.6324404761905 7.55960121369744  12.4895833333333 9.938448201127  9.42857142857143 10.5071521456437  L 9.42857142857143 16.1248374512354  Z " fill-rule="nonzero" fill="#82817e" stroke="none" transform="matrix(1 0 0 1 896 437 )" />
  </g>
</svg>