<?xml version="1.0" encoding="utf-8"?>
<svg version="1.1" xmlns:xlink="http://www.w3.org/1999/xlink" width="263px" height="202px" xmlns="http://www.w3.org/2000/svg">
  <g transform="matrix(1 0 0 1 -926 -147 )">
    <path d="M 926 147  L 1189 147  L 1189 349  L 926 349  L 926 147  " fill-rule="nonzero" fill="#cccccc" stroke="none" />
    <path d="M 940 161  L 1175 161  L 1175 335  L 940 335  L 940 161  " fill-rule="nonzero" fill="#ffffff" stroke="none" />
    <path d="M 1077.91 207.6  C 1069.426 207.6  1062.76 200.934  1062.76 192.45  C 1062.76 183.966  1069.426 177.3  1077.91 177.3  C 1086.394 177.3  1093.06 183.966  1093.06 192.45  C 1093.06 200.934  1086.394 207.6  1077.91 207.6  " fill-rule="nonzero" fill="#cccccc" stroke="none" />
    <path d="M 945 330  L 945 239.8  L 1001.25 198.8  L 1080 254.422813688213  L 1125 223.4  L 1170 254.422813688213  L 1170 330  L 945 330  " fill-rule="nonzero" fill="#169bd5" stroke="none" />
  </g>
</svg>